<?xml version="1.0" encoding="utf-8"?>
<!-- Generator: Adobe Illustrator 19.1.0, SVG Export Plug-In . SVG Version: 6.00 Build 0)  -->
<svg version="1.1" id="Layer_1" xmlns="http://www.w3.org/2000/svg" xmlns:xlink="http://www.w3.org/1999/xlink" x="0px" y="0px"
	 viewBox="0 0 30 30" enable-background="new 0 0 30 30" xml:space="preserve">
<g>
	<path fill="#FFFFFF" d="M15,2.3C8,2.3,2.3,8,2.3,15S8,27.7,15,27.7S27.7,22,27.7,15S22,2.3,15,2.3z"/>
	<g>
		<path fill="#FF6C36" d="M19.2,6.4h-5.8c-1.6,0-2.9,1.3-2.9,2.9v10.1c0,1.6,1.3,2.9,2.9,2.9h5.8c1.6,0,2.9-1.3,2.9-2.9V9.3
			C22.1,7.7,20.8,6.4,19.2,6.4z M20.8,19.1h-9.1v-0.8h9.1V19.1z M20.8,16.9h-9.1v-0.8h9.1V16.9z M20.8,14.7h-9.1v-0.8h9.1V14.7z
			 M20.8,12.5h-9.1v-0.8h9.1V12.5z M20.8,10.3h-9.1V9.6h9.1V10.3z"/>
		<path fill="#FF6C36" d="M18.7,22.6h-5.8c-1.6,0-2.9-1.3-2.9-2.9V9.7c0-0.7,0.3-1.4,0.7-1.9c-1.6,0-2.8,1.3-2.8,2.9v10.1
			c0,1.6,1.3,2.9,2.9,2.9h5.8C17.5,23.6,18.3,23.2,18.7,22.6C18.8,22.6,18.8,22.6,18.7,22.6z"/>
	</g>
</g>
</svg>
