<?xml version="1.0" encoding="utf-8"?>
<!-- Generator: Adobe Illustrator 19.1.0, SVG Export Plug-In . SVG Version: 6.00 Build 0)  -->
<svg version="1.1" id="Layer_1" xmlns="http://www.w3.org/2000/svg" xmlns:xlink="http://www.w3.org/1999/xlink" x="0px" y="0px"
	 viewBox="0 0 30 30" enable-background="new 0 0 30 30" xml:space="preserve">
<g>
	<path fill="#FFFFFF" d="M15.2,1C7.6,1,1.4,7.2,1.4,14.7s6.2,13.7,13.7,13.7s13.7-6.2,13.7-13.7S22.7,1,15.2,1z"/>
	<g>
		<path fill="#FF6C36" d="M13.3,8.2V4.1c0,0,2,0.5,3.1,0.2l-0.2,1.4c0,0-2.4,0-2.5-0.4L13.3,8.2z"/>
		<path fill="#FF6C36" d="M23.7,14h-1.5v-0.5c0-0.1-0.2-0.2-0.3-0.2h-3.1c-0.2,0-0.3,0.1-0.3,0.2V14h-1.5c-0.2,0-0.3,0-0.5,0.1V8.8
			c0-0.7-0.6-1.3-1.3-1.3h-1.5V6.5c0-0.2-0.2-0.3-0.3-0.3h-3.1c-0.2,0-0.3,0.2-0.3,0.3v0.9H8.6C7.9,7.5,7.3,8,7.3,8.8v12.9
			c0,0.7,0.6,1.3,1.3,1.3h1.6v-2.4h3.5v1.2v1.2h1.6h1.8h1.6v-1.2v-0.2h3.5v1.4h1.6c0.7,0,1.3-0.3,1.3-0.7v-7.4
			C25,14.3,24.5,14,23.7,14z M13.5,9.3h1.6v2.4h-1.6V9.3z M13.5,12.3h1.6v2.4h-1.6V12.3z M10.4,17.8H8.8v-2.4h1.6V17.8z M10.4,14.7
			H8.8v-2.4h1.6V14.7z M10.4,11.7H8.8V9.3h1.6V11.7z M12.8,17.8h-1.6v-2.4h1.6V17.8z M12.8,14.7h-1.6v-2.4h1.6V14.7z M12.8,11.7
			h-1.6V9.3h1.6V11.7z M13.5,17.8v-2.4h1.6v2.4H13.5z M18.9,20h-1.6v-1.4h1.6V20z M18.9,18.2h-1.6v-1.4h1.6V18.2z M18.9,16.4h-1.6
			v-1.4h1.6V16.4z M21.2,20h-1.6v-1.4h1.6V20z M21.2,18.2h-1.6v-1.4h1.6V18.2z M21.2,16.4h-1.6v-1.4h1.6V16.4z M23.6,20h-1.6v-1.4
			h1.6V20z M23.6,18.2h-1.6v-1.4h1.6V18.2z M23.6,16.4h-1.6v-1.4h1.6V16.4z"/>
	</g>
</g>
</svg>
