<?xml version="1.0" encoding="utf-8"?>
<!-- Generator: Adobe Illustrator 19.1.0, SVG Export Plug-In . SVG Version: 6.00 Build 0)  -->
<svg version="1.1" id="Layer_1" xmlns="http://www.w3.org/2000/svg" xmlns:xlink="http://www.w3.org/1999/xlink" x="0px" y="0px"
	 viewBox="0 0 30 30" enable-background="new 0 0 30 30" xml:space="preserve">
<g>
	<path fill="#FFFFFF" d="M15.1,1.1C7.5,1.1,1.3,7.3,1.3,14.9s6.2,13.8,13.8,13.8s13.8-6.2,13.8-13.8S22.7,1.1,15.1,1.1z"/>
	<g>
		<g>
			<circle fill="#FF6C36" cx="15.5" cy="7.9" r="2.5"/>
			<path fill="#FF6C36" d="M17,11.2h-2.9c-1.2,0-2.3,1-2.3,2.3v4.7c0,0.8,0.5,1.6,1.2,2v2.3c0,1,0.8,1.9,1.9,1.9h1.4
				c1,0,1.9-0.8,1.9-1.9v-2.3c0.7-0.4,1.2-1.1,1.2-2v-4.7C19.3,12.2,18.2,11.2,17,11.2z"/>
		</g>
		<g>
			<circle fill="#FF6C36" cx="22.4" cy="8.7" r="1.6"/>
			<path fill="#FF6C36" d="M23.3,10.8h-1.9c-0.8,0-1.4,0.7-1.4,1.4v3c0,0.5,0.3,1,0.7,1.3V18c0,0.7,0.5,1.2,1.2,1.2h0.9
				c0.7,0,1.2-0.5,1.2-1.2v-1.5c0.4-0.2,0.7-0.7,0.7-1.3v-3C24.8,11.5,24.1,10.8,23.3,10.8z"/>
		</g>
		<g>
			<circle fill="#FF6C36" cx="8.3" cy="8.7" r="1.6"/>
			<path fill="#FF6C36" d="M9.2,10.8H7.3c-0.8,0-1.4,0.7-1.4,1.4v3c0,0.5,0.3,1,0.7,1.3V18c0,0.7,0.5,1.2,1.2,1.2h0.9
				c0.7,0,1.2-0.5,1.2-1.2v-1.5c0.4-0.2,0.7-0.7,0.7-1.3v-3C10.7,11.5,10,10.8,9.2,10.8z"/>
		</g>
	</g>
</g>
</svg>
