<?xml version="1.0" encoding="utf-8"?>
<!-- Generator: Adobe Illustrator 19.1.0, SVG Export Plug-In . SVG Version: 6.00 Build 0)  -->
<svg version="1.1" id="Layer_1" xmlns="http://www.w3.org/2000/svg" xmlns:xlink="http://www.w3.org/1999/xlink" x="0px" y="0px"
	 viewBox="0 0 30 30" enable-background="new 0 0 30 30" xml:space="preserve">
<g>
	<path fill="#FFFFFF" d="M15,1C7.3,1,1,7.3,1,15s6.3,14,14,14c7.7,0,14-6.3,14-14S22.7,1,15,1z"/>
	<g>
		<g>
			<path fill="#FF6C36" d="M10,11.3H7v-3h3V11.3z M7.3,11h2.4V8.6H7.3V11z"/>
			<rect x="11.4" y="9.2" fill="#FF6C36" width="11.9" height="1.1"/>
		</g>
		<g>
			<path fill="#FF6C36" d="M10,16.7H7v-3h3V16.7z M7.3,16.4h2.4V14H7.3V16.4z"/>
			<rect x="11.4" y="14.6" fill="#FF6C36" width="11.9" height="1.1"/>
		</g>
		<g>
			<path fill="#FF6C36" d="M10,22.1H7v-3h3V22.1z M7.3,21.8h2.4v-2.4H7.3V21.8z"/>
			<rect x="11.4" y="20.1" fill="#FF6C36" width="11.9" height="1.1"/>
		</g>
	</g>
</g>
</svg>
