<?xml version="1.0" encoding="utf-8"?>
<!-- Generator: Adobe Illustrator 19.1.0, SVG Export Plug-In . SVG Version: 6.00 Build 0)  -->
<svg version="1.1" id="Layer_1" xmlns="http://www.w3.org/2000/svg" xmlns:xlink="http://www.w3.org/1999/xlink" x="0px" y="0px"
	 viewBox="0 0 30 30" enable-background="new 0 0 30 30" xml:space="preserve">
<path fill="#FFFFFF" d="M15.1,1.1C7.5,1.1,1.3,7.3,1.3,14.9s6.2,13.8,13.8,13.8c7.6,0,13.8-6.2,13.8-13.8S22.7,1.1,15.1,1.1z"/>
<g>
	<path fill="#FF6C36" d="M15.9,7.6c0-1.3-1.1-2.4-2.4-2.4c-1.1,0-2.1,0.8-2.3,1.8C11,6,10.1,5.2,9,5.2c-1.3,0-2.4,1.1-2.4,2.4
		c0,1.3,3.2,4.8,4.6,5c0,0,0,0,0,0c0,0,0,0,0.1,0c0,0,0,0,0.1,0c0,0,0,0,0,0C12.7,12.4,15.9,8.9,15.9,7.6z"/>
	<g>
		<circle fill="#FF6C36" cx="18.9" cy="9.5" r="2.5"/>
		<path fill="#FF6C36" d="M20.4,12.9h-2.9c-1.2,0-2.3,1-2.3,2.3v4.7c0,0.8,0.5,1.6,1.2,2v2.3c0,1,0.8,1.9,1.9,1.9h1.4
			c1,0,1.9-0.8,1.9-1.9v-2.3c0.7-0.4,1.2-1.1,1.2-2v-4.7C22.6,13.9,21.6,12.9,20.4,12.9z"/>
	</g>
	<g>
		<circle fill="#FF6C36" cx="11.6" cy="15.4" r="1.6"/>
		<path fill="#FF6C36" d="M12.6,17.6h-1.9c-0.8,0-1.4,0.6-1.4,1.4v3c0,0.5,0.3,1,0.7,1.3v1.5c0,0.7,0.5,1.2,1.2,1.2h0.9
			c0.7,0,1.2-0.5,1.2-1.2v-1.5C13.7,23,14,22.6,14,22v-3C14,18.2,13.4,17.6,12.6,17.6z"/>
	</g>
</g>
</svg>
