<?xml version="1.0" encoding="utf-8"?>
<!-- Generator: Adobe Illustrator 19.1.0, SVG Export Plug-In . SVG Version: 6.00 Build 0)  -->
<svg version="1.1" id="Layer_1" xmlns="http://www.w3.org/2000/svg" xmlns:xlink="http://www.w3.org/1999/xlink" x="0px" y="0px"
	 viewBox="0 0 30 30" enable-background="new 0 0 30 30" xml:space="preserve">
<g>
	<path fill="#FFFFFF" d="M15,1.3C7.5,1.3,1.3,7.5,1.3,15S7.5,28.7,15,28.7S28.7,22.5,28.7,15S22.5,1.3,15,1.3z"/>
	<g>
		<path fill="#FF6C36" d="M17.4,13.9c0.7,0,1.2-0.5,1.2-1.2V8c0-0.7-0.5-1.2-1.2-1.2h-4.7c-0.7,0-1.2,0.5-1.2,1.2v4.7
			c0,0.7,0.5,1.2,1.2,1.2H17.4z M13.1,12.1c0.1,0,0.1,0,0.2-0.1c0.1,0,0.1-0.1,0.2-0.2c0-0.1,0.1-0.2,0.1-0.3l1.2-3.3h0.8l1,3.3
			c0,0.1,0.1,0.3,0.1,0.3c0,0.1,0.1,0.1,0.1,0.2c0,0,0.1,0.1,0.2,0.1v0.2h-1.6v-0.2c0.1,0,0.2,0,0.2-0.1c0,0,0.1-0.1,0.1-0.2
			c0-0.1,0-0.1,0-0.2c0-0.1,0-0.2-0.1-0.3L15.5,11h-1.3l-0.1,0.3c0,0.1-0.1,0.2-0.1,0.2c0,0.1,0,0.2,0,0.2c0,0.2,0.1,0.3,0.3,0.3
			v0.2h-1.3V12.1z"/>
		<path fill="#FF6C36" d="M13.2,15.1H8.5c-0.7,0-1.2,0.5-1.2,1.2V21c0,0.7,0.5,1.2,1.2,1.2h4.7c0.7,0,1.2-0.5,1.2-1.2v-4.7
			C14.3,15.7,13.8,15.1,13.2,15.1z M12.4,19.9c-0.1,0.1-0.2,0.3-0.3,0.4c-0.1,0.1-0.3,0.2-0.5,0.2c-0.2,0-0.4,0.1-0.7,0.1H9.1v-0.2
			c0.1,0,0.1,0,0.2-0.1c0,0,0.1-0.1,0.1-0.1c0,0,0-0.1,0-0.2c0-0.1,0-0.1,0-0.2v-2.6c0-0.1,0-0.2,0-0.2c0-0.1,0-0.1,0-0.2
			c0,0-0.1-0.1-0.1-0.1c0,0-0.1,0-0.2-0.1v-0.2h2c0.2,0,0.4,0,0.5,0c0.2,0,0.3,0.1,0.5,0.2c0.1,0.1,0.2,0.2,0.3,0.3
			c0.1,0.1,0.1,0.3,0.1,0.4c0,0.5-0.3,0.8-0.8,1v0c0.3,0.1,0.5,0.2,0.6,0.4c0.1,0.2,0.2,0.4,0.2,0.6C12.5,19.6,12.5,19.8,12.4,19.9z
			"/>
		<path fill="#FF6C36" d="M11.2,18.2c0.1-0.1,0.2-0.1,0.3-0.2c0.1-0.1,0.1-0.3,0.1-0.4c0-0.2,0-0.3-0.1-0.4
			c-0.1-0.1-0.2-0.2-0.3-0.2c-0.1,0-0.3-0.1-0.4-0.1c-0.1,0-0.3,0-0.4,0v1.4h0.4C11,18.3,11.1,18.2,11.2,18.2z"/>
		<path fill="#FF6C36" d="M11.4,18.8c-0.1-0.1-0.2-0.1-0.3-0.1c-0.1,0-0.2,0-0.4,0h-0.4v1.6c0.1,0,0.3,0,0.4,0c0.2,0,0.3,0,0.5-0.1
			c0.1,0,0.2-0.1,0.3-0.2c0.1-0.1,0.1-0.3,0.1-0.5c0-0.1,0-0.3-0.1-0.4C11.5,18.9,11.5,18.9,11.4,18.8z"/>
		<polygon fill="#FF6C36" points="14.9,9 14.3,10.7 15.4,10.7 		"/>
		<path fill="#FF6C36" d="M21.8,14.5h-3.6c0.6-0.2,1.1-0.7,1.1-1.4V7.7c0-0.8-0.7-1.5-1.5-1.5h-5.4c-0.8,0-1.5,0.7-1.5,1.5v5.4
			c0,0.7,0.4,1.2,1.1,1.4H8.1c-0.8,0-1.5,0.7-1.5,1.5v5.4c0,0.8,0.7,1.5,1.5,1.5h5.4c0.8,0,1.4-0.6,1.5-1.4c0.1,0.8,0.7,1.4,1.5,1.4
			h5.4c0.8,0,1.5-0.7,1.5-1.5V16C23.3,15.1,22.6,14.5,21.8,14.5z M11.3,12.7V8c0-0.8,0.6-1.4,1.4-1.4h4.7c0.8,0,1.4,0.6,1.4,1.4v4.7
			c0,0.8-0.6,1.4-1.4,1.4h-4.7C11.9,14.1,11.3,13.5,11.3,12.7z M14.6,21c0,0.8-0.6,1.4-1.4,1.4H8.5C7.7,22.4,7,21.8,7,21v-4.7
			c0-0.8,0.6-1.4,1.4-1.4h4.7c0.8,0,1.4,0.6,1.4,1.4V21z M15,15.9c0-0.6-0.5-1.1-1-1.3H16C15.4,14.7,15,15.2,15,15.9z M22.9,21
			c0,0.8-0.6,1.4-1.4,1.4h-4.7c-0.8,0-1.4-0.6-1.4-1.4v-4.7c0-0.8,0.6-1.4,1.4-1.4h4.7c0.8,0,1.4,0.6,1.4,1.4V21z"/>
		<path fill="#FF6C36" d="M21.5,15.1h-4.7c-0.7,0-1.2,0.5-1.2,1.2V21c0,0.7,0.5,1.2,1.2,1.2h4.7c0.7,0,1.2-0.5,1.2-1.2v-4.7
			C22.7,15.7,22.1,15.1,21.5,15.1z M20.4,17.4H20c0-0.2-0.1-0.4-0.2-0.5c-0.1-0.1-0.2-0.2-0.4-0.2c-0.3,0-0.6,0.2-0.7,0.5
			c-0.2,0.3-0.2,0.7-0.2,1.3c0,0.6,0.1,1,0.2,1.3c0.1,0.3,0.4,0.4,0.6,0.4c0.1,0,0.3,0,0.4-0.1c0.1,0,0.2-0.1,0.2-0.2
			c0.1-0.1,0.1-0.2,0.1-0.4h0.4v0.9c-0.2,0.1-0.4,0.1-0.6,0.1c-0.2,0-0.4,0-0.6,0c-0.4,0-0.8-0.1-1-0.2c-0.3-0.1-0.5-0.4-0.6-0.7
			c-0.1-0.3-0.2-0.7-0.2-1.1c0-0.4,0.1-0.8,0.2-1.1c0.1-0.3,0.4-0.6,0.6-0.7c0.3-0.2,0.6-0.3,1-0.3c0.2,0,0.4,0,0.5,0
			c0.2,0,0.3,0.1,0.5,0.1V17.4z"/>
	</g>
</g>
</svg>
