<?xml version="1.0" encoding="utf-8"?>
<!-- Generator: Adobe Illustrator 19.1.0, SVG Export Plug-In . SVG Version: 6.00 Build 0)  -->
<svg version="1.1" id="Layer_1" xmlns="http://www.w3.org/2000/svg" xmlns:xlink="http://www.w3.org/1999/xlink" x="0px" y="0px"
	 viewBox="0 0 30 30" enable-background="new 0 0 30 30" xml:space="preserve">
<g>
	<path fill="#FFFFFF" d="M15,1.1C7.5,1.1,1.3,7.2,1.3,14.8S7.5,28.5,15,28.5s13.7-6.1,13.7-13.7S22.6,1.1,15,1.1z"/>
	<g>
		<path fill="#FF6C36" d="M20.2,20.3C20.2,20.3,20.2,20.2,20.2,20.3c-0.1,0-0.2,0-0.3,0c-0.2,0.1-0.4,0.2-0.6,0.3
			c-2,1.3-2.9,2.9-2.9,4.8c0.5,0,1.1,0,1.6,0c0-0.3,0.1-0.6,0.1-0.9c0.1-0.7,0.3-1.4,0.6-2.1c0.3-0.6,0.7-1.2,1.2-1.8
			C20.1,20.5,20.2,20.4,20.2,20.3z"/>
		<path fill="#FF6C36" d="M20.4,23.1c-0.1,0-0.2,0.1-0.3,0.1c-0.9,0.6-1.3,1.3-1.3,2.2c0.2,0,0.5,0,0.7,0c0-0.1,0-0.3,0-0.4
			c0-0.3,0.1-0.7,0.3-1c0.1-0.3,0.3-0.6,0.6-0.8c0,0,0.1-0.1,0.1-0.1c0,0,0,0,0,0C20.5,23.1,20.4,23.1,20.4,23.1z"/>
		<path fill="#FF6C36" d="M9.6,23.2c-0.1-0.1-0.2-0.1-0.3-0.1c0,0-0.1,0-0.1,0c0,0,0,0,0,0c0,0,0.1,0.1,0.1,0.1
			c0.2,0.3,0.4,0.5,0.6,0.8c0.1,0.3,0.2,0.6,0.3,1c0,0.1,0,0.3,0,0.4c0.2,0,0.5,0,0.7,0C11,24.6,10.5,23.8,9.6,23.2z"/>
		<path fill="#FF6C36" d="M11.3,21.6c-0.5-0.5-1.1-0.9-1.9-1.2c-0.1-0.1-0.3-0.1-0.4-0.1c0,0,0,0,0,0c0.1,0.1,0.3,0.3,0.4,0.4
			c0.7,0.6,1.2,1.3,1.6,2c0.4,0.9,0.6,1.8,0.6,2.7c0.6,0,1.1,0,1.7,0c-0.1-0.4-0.1-0.8-0.2-1.2C12.8,23.3,12.2,22.4,11.3,21.6z"/>
		<path fill="#FF6C36" d="M18.6,18.8c-0.1,0-0.2,0-0.3,0c-0.5,0.1-0.9,0.3-1.3,0.6c-0.4,0.3-0.7,0.6-1,0.9l0-7.6l6.5-0.8l-0.8-6.8
			L7.4,6.8l0.8,6.8l6.2-0.7l0.3,8.6c-0.4-1-1.1-1.9-2-2.8c-0.5-0.5-1.1-0.9-1.9-1.2c-0.1-0.1-0.3-0.1-0.4-0.1c0,0,0,0,0,0
			c0.1,0,0.1,0.1,0.2,0.1c0.3,0.2,0.5,0.4,0.8,0.6c1,0.9,1.5,2,1.9,3.1c0.4,1.3,0.6,2.7,0.6,4c0.5,0,1.1,0,1.6,0l0.6,0l0-3.1
			C16.4,21,17,19.8,18.6,18.8z M19.2,7.3c0.3,0,0.5,0,0.7,0c0.2,0,0.4,0.1,0.5,0.1c0.2,0.1,0.3,0.2,0.4,0.3C20.9,7.8,21,7.9,21,8.1
			c0.1,0.2,0.1,0.4,0.1,0.6c0,0.3,0,0.5,0,0.7c0,0.2-0.1,0.4-0.2,0.6c-0.1,0.1-0.2,0.3-0.4,0.4c-0.1,0.1-0.3,0.2-0.5,0.2
			c-0.2,0.1-0.4,0.1-0.7,0.1l-1.1,0.1l0-0.2c0.1,0,0.1,0,0.1-0.1c0,0,0.1-0.1,0.1-0.1c0,0,0-0.1,0-0.1c0-0.1,0-0.1,0-0.2L18.2,8
			c0-0.1,0-0.1,0-0.2c0-0.1,0-0.1,0-0.1c0,0-0.1-0.1-0.1-0.1c0,0-0.1,0-0.2,0l0-0.2L19.2,7.3z M16.3,7.6l0,0.2c-0.1,0-0.1,0-0.1,0.1
			c0,0-0.1,0.1-0.1,0.1c0,0,0,0.1,0,0.1c0,0.1,0,0.1,0,0.2l0.3,2.5l0.5-0.1c0.1,0,0.2,0,0.2-0.1c0.1,0,0.1-0.1,0.1-0.2
			c0-0.1,0.1-0.2,0.1-0.3c0-0.1,0-0.2,0-0.3l0.3,0l0.1,1l-2.4,0.3l0-0.2c0.1,0,0.1,0,0.1-0.1c0,0,0.1-0.1,0.1-0.1c0,0,0-0.1,0-0.1
			c0-0.1,0-0.1,0-0.2l-0.3-2.2c0-0.1,0-0.1,0-0.2c0-0.1,0-0.1,0-0.1c0,0-0.1-0.1-0.1-0.1c0,0-0.1,0-0.2,0l0-0.2L16.3,7.6z
			 M11.2,11.2c-0.1,0.2-0.2,0.3-0.4,0.4c-0.2,0.1-0.4,0.2-0.6,0.2c-0.2,0-0.3,0-0.5,0c-0.2,0-0.4,0-0.5,0l-0.1-0.8l0.3,0
			c0.1,0.2,0.2,0.3,0.3,0.4c0.1,0.1,0.3,0.1,0.4,0.1c0.1,0,0.2,0,0.3-0.1c0.1,0,0.1-0.1,0.2-0.2c0-0.1,0.1-0.2,0-0.3
			c0-0.1,0-0.2-0.1-0.3c0-0.1-0.1-0.1-0.2-0.2c-0.1-0.1-0.2-0.1-0.4-0.2c-0.1,0-0.3-0.1-0.4-0.2c-0.1-0.1-0.2-0.1-0.3-0.2
			C9.2,9.9,9.1,9.8,9,9.7C9,9.6,9,9.5,8.9,9.4c0-0.2,0-0.4,0.1-0.5c0.1-0.2,0.2-0.3,0.4-0.4c0.2-0.1,0.4-0.2,0.7-0.2
			c0.1,0,0.3,0,0.4,0c0.1,0,0.3,0,0.5,0L11.1,9l-0.3,0c0-0.1-0.1-0.2-0.2-0.3c-0.1-0.1-0.1-0.1-0.2-0.2c-0.1,0-0.2,0-0.3,0
			c-0.1,0-0.2,0-0.3,0.1c-0.1,0-0.1,0.1-0.2,0.2c0,0.1,0,0.2,0,0.2c0,0.1,0,0.2,0.1,0.2c0,0.1,0.1,0.1,0.2,0.2
			c0.1,0.1,0.2,0.1,0.4,0.2c0.2,0.1,0.4,0.2,0.5,0.3c0.1,0.1,0.2,0.2,0.3,0.3c0.1,0.1,0.1,0.3,0.1,0.4
			C11.3,10.9,11.3,11.1,11.2,11.2z M13.4,11.5c-0.5,0.1-0.9,0-1.2-0.3c-0.3-0.3-0.5-0.7-0.5-1.2c0-0.4,0-0.7,0.1-1
			c0.1-0.3,0.2-0.5,0.5-0.7C12.4,8.1,12.7,8,13,7.9c0.5-0.1,0.9,0,1.2,0.3c0.3,0.3,0.5,0.7,0.5,1.2c0,0.3,0,0.6,0,0.8
			c0,0.2-0.1,0.4-0.3,0.6c-0.1,0.2-0.3,0.3-0.5,0.4C13.8,11.4,13.6,11.4,13.4,11.5z"/>
		<path fill="#FF6C36" d="M13.7,8.8c-0.1-0.2-0.2-0.4-0.3-0.5c-0.1-0.1-0.3-0.1-0.4-0.1c-0.2,0-0.4,0.2-0.5,0.4
			c-0.1,0.2-0.1,0.6,0,1.1c0.1,0.5,0.2,0.9,0.3,1.1c0.2,0.2,0.4,0.3,0.6,0.3c0.1,0,0.2-0.1,0.3-0.1c0.1-0.1,0.1-0.2,0.2-0.3
			c0-0.1,0.1-0.3,0.1-0.5c0-0.2,0-0.4,0-0.6C13.9,9.3,13.8,9.1,13.7,8.8z"/>
		<path fill="#FF6C36" d="M19.5,10.4c0.2,0,0.3-0.1,0.5-0.1c0.1-0.1,0.2-0.1,0.2-0.2c0.1-0.1,0.2-0.3,0.2-0.5c0-0.2,0-0.5,0-0.7
			c0-0.3-0.1-0.6-0.2-0.8c-0.1-0.2-0.2-0.3-0.4-0.4c-0.2-0.1-0.4-0.1-0.6-0.1c-0.1,0-0.2,0-0.2,0l0.3,2.8
			C19.3,10.4,19.4,10.4,19.5,10.4z"/>
	</g>
</g>
</svg>
