<?xml version="1.0" encoding="utf-8"?>
<!-- Generator: Adobe Illustrator 19.1.0, SVG Export Plug-In . SVG Version: 6.00 Build 0)  -->
<svg version="1.1" id="Layer_1" xmlns="http://www.w3.org/2000/svg" xmlns:xlink="http://www.w3.org/1999/xlink" x="0px" y="0px"
	 viewBox="0 0 30 30" enable-background="new 0 0 30 30" xml:space="preserve">
<g>
	<path fill="#FFFFFF" d="M14.9,1C7.3,1,1.2,7.2,1.2,14.7s6.2,13.7,13.7,13.7s13.7-6.2,13.7-13.7S22.5,1,14.9,1z"/>
	<g>
		<path fill="#FF6C36" d="M15.5,7c0.3-0.3,0.7-0.6,1.2-0.8l-1.2-1.3c-0.1-0.1-0.3-0.2-0.5-0.2c0,0,0,0,0,0c-0.2,0-0.4,0.1-0.5,0.2
			l-3.3,3.6V5.3L9.2,7.1v3.5l-3.4,3.7c-0.3,0.3-0.2,0.7,0,1c0.1,0.1,0.3,0.2,0.5,0.2c0.2,0,0.4-0.1,0.5-0.2L15,6.4L15.5,7z"/>
		<path fill="#FF6C36" d="M24.3,14.3l-1.4-1.5c-0.2,0.4-0.5,0.8-0.8,1.1l1.2,1.3c0.3,0.3,0.7,0.3,1,0C24.6,15,24.6,14.6,24.3,14.3z"
			/>
		<path fill="#FF6C36" d="M21.2,14.6c-0.7,0.5-1.6,0.7-2.5,0.7c-2.6,0-4.8-2.1-4.8-4.8c0-0.7,0.1-1.3,0.4-1.9l-6.2,6.8v6.2
			c0,1.3,1.1,2.4,2.4,2.4h2.9v-4.7h3.7V24h2.5c1.3,0,2.4-1.1,2.4-2.4v-6.2L21.2,14.6z"/>
		<g>
			<circle fill="#FF6C36" cx="18.7" cy="7.5" r="1"/>
			<path fill="#FF6C36" d="M19.3,8.9h-1.2c-0.5,0-0.9,0.4-0.9,0.9v1.9c0,0.3,0.2,0.6,0.5,0.8v0.9c0,0.4,0.3,0.8,0.8,0.8H19
				c0.4,0,0.8-0.3,0.8-0.8v-0.9c0.3-0.2,0.5-0.5,0.5-0.8V9.8C20.2,9.3,19.8,8.9,19.3,8.9z"/>
		</g>
	</g>
</g>
</svg>
