<?xml version="1.0" encoding="utf-8"?>
<!-- Generator: Adobe Illustrator 19.1.0, SVG Export Plug-In . SVG Version: 6.00 Build 0)  -->
<svg version="1.1" id="Layer_1" xmlns="http://www.w3.org/2000/svg" xmlns:xlink="http://www.w3.org/1999/xlink" x="0px" y="0px"
	 viewBox="0 0 30 30" enable-background="new 0 0 30 30" xml:space="preserve">
<path fill="#FFFFFF" d="M14.9,1.1C7.4,1.1,1.2,7.2,1.2,14.8s6.1,13.7,13.7,13.7s13.7-6.1,13.7-13.7S22.5,1.1,14.9,1.1z"/>
<g>
	<path fill="#FF6C36" d="M20,14.5c0,0-0.8,0-1.9,0c-0.8-3.1-1.7-6.1-2.6-9.2l-0.1-0.2c-0.1-0.2-0.2-0.4-0.4-0.5
		c-0.4-0.2-0.8,0-0.9,0.4l0,0c-0.2,0.4-0.4,0.8-0.6,1.1c-0.2,0.4-0.4,0.7-0.6,1.1l-0.6,1.1c-0.2,0.4-0.3,0.8-0.5,1.1
		c-0.1,0.4-0.3,0.8-0.4,1.2l-0.4,1.2L10.7,13l-0.3,1.2c0,0,0,0,0,0c-1.1-0.1-1.8-0.1-1.8-0.1l0,0c0,0,0,0,0,0
		c-0.4,0-0.7,0.3-0.7,0.7c0,0.4,0.3,0.7,0.7,0.7c0,0,0.6,0,1.5,0c-0.1,0.4-0.2,0.7-0.3,1.1l-0.6,2.3c-0.2,0.8-0.4,1.5-0.6,2.3
		l-0.3,1.1l-0.4,1.1c0,0,0,0.1,0,0.1c-0.1,0.5,0.2,1,0.7,1.1c0.5,0.1,1-0.2,1.1-0.7l0.3-1.2l0.3-1.2l0.2-1.2l0.2-1.2l0.4-2.4
		c0.1-0.5,0.2-0.9,0.3-1.4c0.9,0,1.8,0,2.8,0c0.8,0,1.7,0,2.5-0.1c0.7,2.7,1.4,5.4,2,8.1c0.1,0.4,0.5,0.7,0.9,0.6
		c0.4-0.1,0.7-0.5,0.6-0.9c-0.6-2.6-1.2-5.2-1.9-7.8c1,0,1.7-0.1,1.7-0.1l0,0c0.2,0,0.4-0.2,0.4-0.4C20.4,14.6,20.3,14.5,20,14.5z
		 M14.3,14.4c-0.9,0-1.8-0.1-2.6-0.1l0.2-0.9l0.3-1.1c0.1-0.4,0.2-0.8,0.3-1.1c0.1-0.4,0.3-0.7,0.4-1.1l0.5-1.1
		c0.2-0.4,0.3-0.7,0.5-1c0.1-0.2,0.3-0.5,0.4-0.7c0.7,2.4,1.4,4.8,2.1,7.3C15.8,14.4,15.1,14.4,14.3,14.4z"/>
	<path fill="#FF6C36" d="M22.1,7.1c-0.1-0.2-0.3-0.4-0.5-0.3c0,0-0.2,0.1-0.6,0.1C20.7,6.9,20.3,7,19.9,7c0-0.5-0.1-1-0.1-1.4
		c0-0.5-0.1-0.9-0.1-0.9c0-0.3-0.2-0.5-0.5-0.4s-0.5,0.2-0.4,0.5l0,0c0,0,0,0.3,0.1,0.9c0,0.4,0.1,0.9,0.1,1.4c-0.1,0-0.3,0-0.4,0
		c-0.2,0-0.3,0-0.4,0C18.1,7,18,7,18,7c0,0,0,0-0.1,0c-0.4,0-0.6,0.3-0.6,0.7c0,0.4,0.3,0.6,0.7,0.6c0,0,0.1,0,0.2,0
		c0.1,0,0.3,0,0.4,0c0.1,0,0.2,0,0.4,0c0,1.2,0,2.2,0,2.2l0,0c0,0.3,0.2,0.5,0.5,0.5c0.3,0,0.5-0.2,0.5-0.5l0,0c0,0,0-1.1,0-2.3
		c0,0,0,0,0,0c0.5-0.1,1-0.2,1.3-0.3c0.4-0.1,0.6-0.2,0.6-0.2l0,0C22,7.5,22.2,7.3,22.1,7.1z"/>
</g>
</svg>
