<?xml version="1.0" encoding="utf-8"?>
<!-- Generator: Adobe Illustrator 19.1.0, SVG Export Plug-In . SVG Version: 6.00 Build 0)  -->
<svg version="1.1" id="Layer_1" xmlns="http://www.w3.org/2000/svg" xmlns:xlink="http://www.w3.org/1999/xlink" x="0px" y="0px"
	 viewBox="0 0 30 30" enable-background="new 0 0 30 30" xml:space="preserve">
<g>
	<path fill="#FFFFFF" d="M15,1.1C7.5,1.1,1.3,7.2,1.3,14.8S7.5,28.5,15,28.5s13.7-6.1,13.7-13.7S22.5,1.1,15,1.1z"/>
	<g>
		<path fill="#FF6C36" d="M14.7,10.4c0-0.3,0.1-0.6,0.1-0.9c-0.9,0.3-1.8,0.3-2.7-0.2c-0.8-0.4-1.4-1-1.9-1.8c0.1,0,0.2-0.1,0.3-0.1
			c0.3-0.1,0.6-0.2,0.9-0.2c0.5-0.1,1,0,1.5,0.1c0.9,0.2,1.6,0.7,2.1,1.5c0,0,0,0,0,0.1c0.3-0.7,0.9-1.2,1.6-1.6
			C17.1,7,17.4,7.7,17,8c0,0,0,0,0,0c-0.9,0.5-1.4,1.3-1.4,2.4c0.1,0,0.2,0,0.3-0.1c0.7-0.2,1.4-0.2,2.1-0.2
			c1.3,0.1,2.3,0.6,3.2,1.5c0.6,0.6,1,1.4,1.1,2.3c0.1,0.3,0.1,0.6,0.1,0.9c0,0.5-0.1,0.9-0.1,1.4c-0.1,0.7-0.3,1.4-0.6,2.1
			c-0.5,1.2-1.2,2.2-2.1,3.1c-0.5,0.5-1.1,0.7-1.7,0.9c-0.5,0.1-1,0-1.5-0.1c-0.3-0.1-0.6-0.2-0.9-0.2c0,0-0.1,0-0.1,0
			c-0.4,0.1-0.7,0.2-1.1,0.3c-0.4,0.1-0.9,0.1-1.3,0.1c-0.6-0.1-1.1-0.3-1.6-0.7c-0.2-0.2-0.5-0.4-0.7-0.7c-1-1.1-1.7-2.5-2.1-3.9
			C8.1,16.2,8,15.4,8,14.7c0-1,0.4-2.1,1-2.9c0.6-0.8,1.4-1.3,2.4-1.5c0.5-0.1,1-0.1,1.4-0.1c0.5,0,1,0.1,1.5,0.2
			C14.5,10.4,14.6,10.4,14.7,10.4z"/>
	</g>
</g>
</svg>
