<?xml version="1.0" encoding="utf-8"?>
<!-- Generator: Adobe Illustrator 19.1.0, SVG Export Plug-In . SVG Version: 6.00 Build 0)  -->
<svg version="1.1" id="Layer_1" xmlns="http://www.w3.org/2000/svg" xmlns:xlink="http://www.w3.org/1999/xlink" x="0px" y="0px"
	 viewBox="0 0 30 30" enable-background="new 0 0 30 30" xml:space="preserve">
<g>
	<path fill="#FFFFFF" d="M15.1,1.1C7.5,1.1,1.3,7.3,1.3,14.9s6.2,13.8,13.8,13.8s13.8-6.2,13.8-13.8S22.7,1.1,15.1,1.1z"/>
	<g>
		<path fill="#FF6C36" d="M22.7,9h-1.9c0-0.7-1-2-4.8-2c-4.6,0-5.3,1.3-5.3,2H8c-0.8,0-1.4,0.6-1.4,1.4v3.4c1.7,0.7,5.2,1.9,7.9,2.2
			v-0.5h1.9V16c2.8-0.2,6.1-0.8,7.7-1.6v-4C24.1,9.6,23.5,9,22.7,9z M11.7,9c0-0.2,0.8-1,4.2-1c2.8,0,3.6,0.7,3.8,1H11.7z"/>
		<path fill="#FF6C36" d="M16.4,17.4h-1.9v-0.6c-2.6-0.2-6-1.3-7.9-2.1v5.9c0,0.8,0.6,1.4,1.4,1.4h14.7c0.8,0,1.4-0.6,1.4-1.4v-5.3
			c-1.9,0.8-5.2,1.4-7.7,1.5V17.4z"/>
	</g>
</g>
</svg>
